/* XPM */
static char *beec4d9d327e424bf4baa322a53d1009PyxGS8CeUUbXYhff[] = {
/* columns rows colors chars-per-pixel */
"24 24 2 1 ",
"  c black",
". c #9C5A3C",
/* pixels */
"........................",
"                        ",
"........................",
"  .   .   .   .   .   . ",
"  .   .   .   .   .   . ",
"........................",
".   .   .   .   .   .   ",
".   .   .   .   .   .   ",
"........................",
"  .   .   .   .   .   . ",
"  .   .   .   .   .   . ",
"........................",
".   .   .   .   .   .   ",
".   .   .   .   .   .   ",
"........................",
"  .   .   .   .   .   . ",
"  .   .   .   .   .   . ",
"........................",
".   .   .   .   .   .   ",
".   .   .   .   .   .   ",
"........................",
"  .   .   .   .   .   . ",
"  .   .   .   .   .   . ",
"........................"
};
