/* XPM */
static char *_c383ccbb8e944c1e853fb3860d9b48dmnfo6ax0iTair5X9[] = {
/* columns rows colors chars-per-pixel */
"24 24 2 1 ",
"  c black",
". c #9C5A3C",
/* pixels */
"........................",
".                       ",
". ......................",
". .   .   .   .   .   . ",
". .   .   .   .   .   . ",
". ......................",
". . .   .   .   .   .   ",
". . .   .   .   .   .   ",
". ......................",
". .   .   .   .   .   . ",
". .   .   .   .   .   . ",
". ......................",
". . .   .   .   .   .   ",
". . .   .   .   .   .   ",
". ......................",
". .   .   .   .   .   . ",
". .   .   .   .   .   . ",
". ......................",
". . .   .   .   .   .   ",
". . .   .   .   .   .   ",
". ......................",
". .   .   .   .   .   . ",
". .   .   .   .   .   . ",
". ......................"
};
