/* XPM */
static char *_e6b99d8211a41f1cbbcae5ad0c4eedeg2bbCCOTt9ffPcGZ[] = {
/* columns rows colors chars-per-pixel */
"24 24 2 1 ",
"  c black",
". c #9C5A3C",
/* pixels */
"........................",
"                       .",
"...................... .",
"  .   .   .   .   .  . .",
"  .   .   .   .   .  . .",
"...................... .",
".   .   .   .   .   .. .",
".   .   .   .   .   .. .",
"...................... .",
"  .   .   .   .   .  . .",
"  .   .   .   .   .  . .",
"...................... .",
".   .   .   .   .   .. .",
".   .   .   .   .   .. .",
"...................... .",
"  .   .   .   .   .  . .",
"  .   .   .   .   .  . .",
"...................... .",
".   .   .   .   .   .. .",
".   .   .   .   .   .. .",
"...................... .",
"  .   .   .   .   .  . .",
"  .   .   .   .   .  . .",
"...................... ."
};
