/* XPM */
static char * border_horizontal_xpm[] = {
"48 1 2 1",
" 	c #1002FC",
".	c #1100FE",
" .............................................. "};
